<?xml version="1.0" standalone="no"?><!DOCTYPE svg PUBLIC "-//W3C//DTD SVG 1.1//EN" "http://www.w3.org/Graphics/SVG/1.1/DTD/svg11.dtd"><svg t="1586971202321" class="icon" viewBox="0 0 1024 1024" version="1.1" xmlns="http://www.w3.org/2000/svg" p-id="12075" xmlns:xlink="http://www.w3.org/1999/xlink" width="32" height="32"><defs><style type="text/css"></style></defs><path d="M663.4 541.2m-40.9 0a40.9 40.9 0 1 0 81.8 0 40.9 40.9 0 1 0-81.8 0Z" fill="#bfcbd9" p-id="12076" data-spm-anchor-id="a313x.7781069.0.i10" class="selected"></path><path d="M643.1 149.2m-40.9 0a40.9 40.9 0 1 0 81.8 0 40.9 40.9 0 1 0-81.8 0Z" fill="#bfcbd9" p-id="12077" data-spm-anchor-id="a313x.7781069.0.i11" class="selected"></path><path d="M989 854.6c0-143.7-85.3-267.5-208-323.6 54.8-43.4 90-110.6 90-185.9 0-127.8-101.2-232-227.9-236.8v81.8c81 4.7 145.2 72.9 145.2 155 0 78.8-56.1 146.7-132.3 156.1-5.6 0.7-12.9 7.4-12.9 13v60.6c0-20 3.1-0.6 7.2-0.3l5 7c143.3 8.7 251.8 127.6 251.8 273.1h0.1v0.8c0 22.6 18.3 40.9 40.9 40.9S989 878 989 855.4v-0.8z" fill="#bfcbd9" p-id="12078" data-spm-anchor-id="a313x.7781069.0.i9" class="selected"></path><path d="M393.5 344.7m-233.4 0a233.4 233.4 0 1 0 466.8 0 233.4 233.4 0 1 0-466.8 0Z" fill="#bfcbd9" p-id="12079" data-spm-anchor-id="a313x.7781069.0.i8" class="selected"></path><path d="M759.9 861.9c-0.1-1.8-0.2-3.6-0.5-5.3-20-184.4-176.2-328-365.9-328-190 0-346.3 143.9-366 328.7-0.2 1.3-0.3 2.6-0.4 4 0 0.2 0 0.4-0.1 0.7v1.1c0 20.1 16.3 36.4 36.4 36.4h660.2c20.1 0 36.4-16.3 36.4-36.4 0-0.5-0.1-0.8-0.1-1.2z" fill="#bfcbd9" p-id="12080" data-spm-anchor-id="a313x.7781069.0.i7" class="selected"></path></svg>