<?xml version="1.0" standalone="no"?><!DOCTYPE svg PUBLIC "-//W3C//DTD SVG 1.1//EN" "http://www.w3.org/Graphics/SVG/1.1/DTD/svg11.dtd"><svg t="1588774341540" class="icon" viewBox="0 0 1024 1024" version="1.1" xmlns="http://www.w3.org/2000/svg" p-id="2212" xmlns:xlink="http://www.w3.org/1999/xlink" width="32" height="32"><defs><style type="text/css"></style></defs><path d="M582.5 572.9c27.6 15 59.2 27.2 94.8 24.4 54.9-4.3 105.6-41.7 159.3-117.7 40.9-57.9 75.9-125.2 98.5-189.4 17-48.4 35-117.9 23.9-174.1-8.1-40.9-29.4-61.9-45.8-72.3-1.4-0.9-2.8-1.7-4.3-2.5-0.3-0.2-0.5-0.4-0.8-0.6-18.7-13.5-44.7-9.2-58.2 9.4l-340 471.6-71.5-97.1 20.3-15.1c26.4-19.7 39.5-53.5 36-92.9-2.9-32.5-16.9-67-39.4-97.1l-1.4-1.8L300 52.3c-15.7-16.8-42.1-17.8-58.9-2.1-16.8 15.7-17.8 42.1-2.1 58.9l150.7 161.8c12.5 17.3 20.4 36.6 21.9 53.2 1.1 11.8-1.6 17.7-2.7 18.5l-20 14.9-173.6-236.2c-13.6-18.5-39.7-22.5-58.3-8.9-18.5 13.6-22.5 39.7-8.9 58.3l174 236.5-17.3 12.9c-1.1 0.8-7.6 1.7-18.5-2.7-15.5-6.2-31.6-19.4-44.6-36.3L129.9 190.3c-11.6-19.9-37.2-26.5-57-14.9C53 187 46.4 212.6 58 232.4l114.1 194.9 1.4 1.8c22.4 30.1 51.5 53.4 81.8 65.6 15.5 6.2 30.9 9.3 45.6 9.3 20 0 38.5-5.7 53.8-17.1l16.9-12.6 87.1 118.4-236.5 328c-13.5 18.7-9.2 44.7 9.4 58.2 7.4 5.3 15.9 7.9 24.3 7.9 12.9 0 25.7-6 33.8-17.3l220.7-306.1 227.2 308.8c8.2 11.1 20.8 17 33.6 17 8.6 0 17.2-2.6 24.7-8.1 18.5-13.6 22.5-39.7 8.9-58.3L565.7 597.6" p-id="2213"></path></svg>