<?xml version="1.0" standalone="no"?><!DOCTYPE svg PUBLIC "-//W3C//DTD SVG 1.1//EN" "http://www.w3.org/Graphics/SVG/1.1/DTD/svg11.dtd"><svg t="1584089814072" class="icon" viewBox="0 0 1024 1024" version="1.1" xmlns="http://www.w3.org/2000/svg" p-id="2653" xmlns:xlink="http://www.w3.org/1999/xlink" width="32" height="32"><defs><style type="text/css"></style></defs><path d="M873.6 1024H768.4v-64.2h102.7c50.2-4.4 89.4-45.4 89.4-93.8V64.2H287.8v704h-64.1V0h800.8v866c0 40.4-15.7 78.9-44.2 108.4-27.9 28.9-65.4 46.4-105.5 49.5l-1.2 0.1z" fill="" p-id="2654"></path><path d="M802.4 1024H232.7c-61.8 0-120.1-24.2-164-68.1C24.7 911.9 0.5 853.7 0.5 792v-56.1h801.9V1024zM64.8 799.9c4.2 89 77.9 160.1 168 160.1h505.6V799.9H64.8zM847.4 255.3H394.9c-17.6 0-32-14.4-32-32s14.4-32 32-32h452.5c17.6 0 32 14.4 32 32s-14.4 32-32 32zM847.4 415.1H394.9c-17.6 0-32-14.4-32-32s14.4-32 32-32h452.5c17.6 0 32 14.4 32 32s-14.4 32-32 32zM847.4 576H394.9c-17.6 0-32-14.4-32-32s14.4-32 32-32h452.5c17.6 0 32 14.4 32 32s-14.4 32-32 32z" fill="" p-id="2655"></path></svg>