<?xml version="1.0" standalone="no"?><!DOCTYPE svg PUBLIC "-//W3C//DTD SVG 1.1//EN" "http://www.w3.org/Graphics/SVG/1.1/DTD/svg11.dtd"><svg t="1586971485111" class="icon" viewBox="0 0 1321 1024" version="1.1" xmlns="http://www.w3.org/2000/svg" p-id="3558" xmlns:xlink="http://www.w3.org/1999/xlink" width="41.28125" height="32"><defs><style type="text/css"></style></defs><path d="M1025.552516 996.153806a529.70529 529.70529 0 0 0-1025.552516 0h1025.552516z m11.230968-583.97729V251.210323a41.191226 41.191226 0 0 1 82.349419 0v160.966193h160.966194a41.191226 41.191226 0 0 1 0 82.349419H1119.132903v160.966194a41.191226 41.191226 0 0 1-82.349419 0v-160.966194h-160.966194a41.191226 41.191226 0 0 1 0-82.349419h160.966194zM512.759742 0.363355a239.715097 239.715097 0 0 1 239.616 239.616 239.715097 239.715097 0 0 1-239.616 239.582968A239.682065 239.682065 0 0 1 273.176774 239.979355 239.715097 239.715097 0 0 1 512.759742 0.363355z" p-id="3559" data-spm-anchor-id="a313x.7781069.0.i3" class="selected" fill="#bfcbd9"></path></svg>