<?xml version="1.0" standalone="no"?><!DOCTYPE svg PUBLIC "-//W3C//DTD SVG 1.1//EN" "http://www.w3.org/Graphics/SVG/1.1/DTD/svg11.dtd"><svg t="1584089825593" class="icon" viewBox="0 0 1024 1024" version="1.1" xmlns="http://www.w3.org/2000/svg" p-id="2791" xmlns:xlink="http://www.w3.org/1999/xlink" width="32" height="32"><defs><style type="text/css"></style></defs><path d="M947.2 238.933h-34.133c0-65.877-38.23-119.466-85.334-119.466V85.333c65.878 0 119.467 68.267 119.467 153.6z" p-id="2792"></path><path d="M793.6 34.133c103.595 0 187.733 99.499 187.733 221.867 0 102.4-58.88 190.805-143.018 215.21a34.133 34.133 0 0 0-24.576 34.134l13.994 450.39a34.133 34.133 0 0 1-68.266 0l27.989-446.977a34.133 34.133 0 0 0-26.965-35.498C670.89 455.168 605.867 363.52 605.867 256c0-122.368 84.138-221.867 187.733-221.867M793.6 0C671.061 0 571.733 114.688 571.733 256c0 125.44 78.336 229.717 181.59 251.563l-27.99 448.17a68.267 68.267 0 0 0 136.534 0L847.7 503.98c96.427-27.99 167.766-128.512 167.766-247.979 0-141.312-99.328-256-221.867-256zM332.8 0h-34.133v341.333H332.8V0zM196.267 0h-34.134v341.333h34.134V0z m68.266 494.933H230.4V1024h34.133V494.933z" p-id="2793"></path><path d="M247.467 529.067C115.712 529.067 8.533 404.48 8.533 251.22V0h34.134v251.221c0 134.315 91.818 243.712 204.8 243.712s204.8-109.397 204.8-243.712V0H486.4v251.221c0 153.259-107.179 277.846-238.933 277.846z" p-id="2794"></path></svg>